<svg xmlns="http://www.w3.org/2000/svg" version="1.1" xmlns:xlink="http://www.w3.org/1999/xlink" xmlns:svgjs="http://svgjs.dev/svgjs" width="2000" height="2000" viewBox="0 0 2000 2000"><g transform="matrix(1,0,0,1,-0.28443113772425477,-0.28443113772459583)"><svg viewBox="0 0 334 334" data-background-color="#293040" preserveAspectRatio="xMidYMid meet" height="2000" width="2000" xmlns="http://www.w3.org/2000/svg" xmlns:xlink="http://www.w3.org/1999/xlink"><g id="tight-bounds" transform="matrix(1,0,0,1,0.04749999999998522,0.04750000000001364)"><svg viewBox="0 0 333.90454557049503 333.90454557049503" height="333.90454557049503" width="333.90454557049503"><g><svg></svg></g><g><svg viewBox="0 0 333.90454557049503 333.90454557049503" height="333.90454557049503" width="333.90454557049503"><g><path d="M0 166.952c0-92.205 74.747-166.952 166.952-166.952 92.205 0 166.952 74.747 166.953 166.952 0 92.205-74.747 166.952-166.953 166.953-92.205 0-166.952-74.747-166.952-166.953zM166.952 326.681c88.216 0 159.729-71.513 159.729-159.729 0-88.216-71.513-159.729-159.729-159.729-88.216 0-159.729 71.513-159.729 159.729 0 88.216 71.513 159.729 159.729 159.729z" data-fill-palette-color="tertiary" fill="#000000" stroke="transparent"></path><ellipse rx="160.27418187383762" ry="160.27418187383762" cx="166.95227278524752" cy="166.95227278524752" fill="#000000" stroke="transparent" stroke-width="0" fill-opacity="1" data-fill-palette-color="tertiary"></ellipse></g><g transform="matrix(1,0,0,1,92.0707517733433,71.17305217166896)"><svg viewBox="0 0 149.76304202380842 191.55844122715712" height="191.55844122715712" width="149.76304202380842"><g><svg viewBox="0 0 149.76304202380842 191.55844122715712" height="191.55844122715712" width="149.76304202380842"><g><svg viewBox="0 0 213.15844122715714 272.6460292479471" height="191.55844122715712" width="149.76304202380842"><g transform="matrix(1,0,0,1,0,158.6448573381584)"><svg viewBox="0 0 213.15844122715714 114.00117190978875" height="114.00117190978875" width="213.15844122715714"><g id="textblocktransform"><svg viewBox="0 0 213.15844122715714 114.00117190978875" height="114.00117190978875" width="213.15844122715714" id="textblock"><g><svg viewBox="0 0 213.15844122715714 114.00117190978875" height="114.00117190978875" width="213.15844122715714"><g transform="matrix(1,0,0,1,0,0)"><svg width="213.15844122715714" viewBox="2.1 -37.5 71.80000000000001 38.4" height="114.00117190978875" data-palette-color="#293040"><path d="M2.1-16.45L2.1-37.5 14.1-37.5 14.1-9.35 18.35-9.35Q20.65-9.35 21.48-9.95 22.3-10.55 22.3-12.55L22.3-12.55 22.3-37.5 34.3-37.5 34.3-16.45Q34.3-11.65 33.68-8.35 33.05-5.05 31.28-2.98 29.5-0.9 26.35 0 23.2 0.9 18.2 0.9L18.2 0.9Q13.2 0.9 10.05 0 6.9-0.9 5.13-2.95 3.35-5 2.73-8.33 2.1-11.65 2.1-16.45L2.1-16.45ZM56.2 0L56.2 0 39.4 0 39.4-37.5 56.2-37.5Q61.25-37.5 64.65-36.48 68.05-35.45 70.1-33.2 72.15-30.95 73.02-27.4 73.9-23.85 73.9-18.8L73.9-18.8Q73.9-13.75 73.02-10.18 72.15-6.6 70.1-4.35 68.05-2.1 64.65-1.05 61.25 0 56.2 0ZM56.4-27.9L56.4-27.9 51.4-27.9 51.4-9.6 56.4-9.6Q58.9-9.6 59.97-10.18 61.05-10.75 61.05-12.8L61.05-12.8 61.05-24.7Q61.05-26.75 59.97-27.33 58.9-27.9 56.4-27.9Z" opacity="1" transform="matrix(1,0,0,1,0,0)" fill="#ffffff" class="wordmark-text-0" data-fill-palette-color="quaternary" id="text-0"></path></svg></g></svg></g></svg></g></svg></g><g transform="matrix(1,0,0,1,40.71326227438702,0)"><svg viewBox="0 0 131.7319166783831 131.7319166783831" height="131.7319166783831" width="131.7319166783831"><g><svg xmlns="http://www.w3.org/2000/svg" xml:space="preserve" viewBox="1 1 62 62" x="0" y="0" height="131.7319166783831" width="131.7319166783831" class="icon-icon-0" data-fill-palette-color="quaternary" id="icon-0"><path d="M51 49.233v9.533L58.943 54z m2 3.534L55.057 54 53 55.233zM49 27h10v2H49zM49 35h10v2H49z" fill="#ffffff" data-fill-palette-color="quaternary"></path><path d="M47 43h14c1.103 0 2-0.897 2-2V25c0-1.103-0.897-2-2-2H47c-1.103 0-2 0.897-2 2v7h-6V19h4c1.103 0 2-0.897 2-2v-6h4v3.277l4 6.666 4-6.666V5c0-2.206-1.794-4-4-4s-4 1.794-4 4v4h-4c-1.103 0-2 0.897-2 2v6h-4V6c0-2.757-2.243-5-5-5H6C3.243 1 1 3.243 1 6v52c0 2.757 2.243 5 5 5h28c2.757 0 5-2.243 5-5V47h2v6c0 1.103 0.897 2 2 2h2.059c0.499 4.493 4.316 8 8.941 8 4.963 0 9-4.037 9-9s-4.037-9-9-9c-4.625 0-8.442 3.507-8.941 8H43v-6c0-1.103-0.897-2-2-2h-2V34h6v7c0 1.103 0.897 2 2 2m0-18h14l0.002 16H47z m4-12V7h4v6z m0.766 2h2.468L53 17.057zM53 3c1.103 0 2 0.897 2 2h-4c0-1.103 0.897-2 2-2M37 58c0 1.654-1.346 3-3 3H6c-1.654 0-3-1.346-3-3V6c0-1.654 1.346-3 3-3h28c1.654 0 3 1.346 3 3z m17-11c3.859 0 7 3.141 7 7s-3.141 7-7 7-7-3.141-7-7 3.141-7 7-7" fill="#ffffff" data-fill-palette-color="quaternary"></path><path d="M49 31h4v2h-4zM55 31h4v2h-4zM12 27v4c0 2.206 1.794 4 4 4h4v2.184A3 3 0 0 0 18 40c0 1.654 1.346 3 3 3s3-1.346 3-3a3 3 0 0 0-2-2.816V35c2.206 0 4-1.794 4-4v-4c1.103 0 2-0.897 2-2v-2c0-1.103-0.897-2-2-2h-4v-1c0-1.654-1.346-3-3-3s-3 1.346-3 3v1h-4c-1.103 0-2 0.897-2 2v2c0 1.103 0.897 2 2 2m9 14a1 1 0 1 1 0-2 1 1 0 0 1 0 2m-5-8c-1.103 0-2-0.897-2-2v-4h6v6z m8-2c0 1.103-0.897 2-2 2v-6h2z m2-8l0.002 2H22v-2z m-8-3a1 1 0 0 1 2 0v1h-2z m-6 3h8v2h-8zM12 49c-1.654 0-3 1.346-3 3s1.346 3 3 3 3-1.346 3-3-1.346-3-3-3m0 4a1 1 0 1 1 0-2 1 1 0 0 1 0 2M20 49c-1.654 0-3 1.346-3 3s1.346 3 3 3 3-1.346 3-3-1.346-3-3-3m0 4a1 1 0 1 1 0-2 1 1 0 0 1 0 2M28 49c-1.654 0-3 1.346-3 3s1.346 3 3 3 3-1.346 3-3-1.346-3-3-3m0 4a1 1 0 1 1 0-2 1 1 0 0 1 0 2M23 9h2v2h-2zM15 9h6v2h-6z" fill="#ffffff" data-fill-palette-color="quaternary"></path><path d="M33 5H7c-1.103 0-2 0.897-2 2v50c0 1.103 0.897 2 2 2h26c1.103 0 2-0.897 2-2V7c0-1.103-0.897-2-2-2m0 2v6H7V7z m0 8l0.001 30H7V15zM7 57V47h26.002v10z" fill="#ffffff" data-fill-palette-color="quaternary"></path></svg></g></svg></g><g></g></svg></g></svg></g></svg></g></svg></g><defs></defs></svg><rect width="333.90454557049503" height="333.90454557049503" fill="none" stroke="none" visibility="hidden"></rect></g></svg></g></svg>